# Alias OBJ Model File
# Exported from SketchUp, (c) 2000-2012 Trimble Navigation Limited
# File units = millimeters

mtllib lid2.mtl

g Mesh1 Model

usemtl FrontColor
v 2.2 53 -2.5
vt -0.0866142 0.0984252
vn 0 -1 -0
v 2.2 53 -81.5
vt -0.0866142 3.20866
v 77.4287 53 -81.5
vt -3.04837 3.20866
v 77.4287 53 -2.5
vt -3.04837 0.0984252
v 75.4 53 -2.5
vt -2.9685 0.0984252
v 75.4 53 -1
vt -2.9685 0.0393701
v 4.2 53 -1
vt -0.165354 0.0393701
v 4.2 53 -2.5
vt -0.165354 0.0984252
f 1/1/1 2/2/1 3/3/1 4/4/1 5/5/1 6/6/1 7/7/1 8/8/1 

v 2.2 55 -76.5
vt -3.01181 2.16535
vn -1 -1.5323e-016 -3.68283e-018
v 2.2 55 -81.5
vt -3.20866 2.16535
vt -3.20866 2.08661
vt -0.0984252 2.08661
v 2.2 55 -2.5
vt -0.0984252 2.16535
v 2.2 55 -56.5
vt -2.22441 2.16535
v 2.2 60 -56.5
vt -2.22441 2.3622
v 2.2 60 -76.5
vt -3.01181 2.3622
f 9/9/2 10/10/2 2/11/2 1/12/2 11/13/2 12/14/2 13/15/2 14/16/2 

vt 0.0866142 3.20866
vn 0 1 -0
vt 0.0866142 3.01181
v 5.2 55 -76.5
vt 0.204724 3.01181
v 5.2 55 -81.5
vt 0.204724 3.20866
f 10/17/3 9/18/3 15/19/3 16/20/3 

vt -0.204724 2.16535
vn 0 0 -1
vt -0.0866142 2.16535
vt -0.0866142 2.3622
v 5.2 60 -76.5
vt -0.204724 2.3622
v 5.2 57 -76.5
vt -0.204724 2.24409
f 15/21/4 9/22/4 14/23/4 17/24/4 18/25/4 

v 5.2 60 -56.5
vt 0.204724 2.22441
vn 1.87998e-015 1 -9.39989e-017
vt 0.0866142 2.22441
f 19/26/5 17/19/5 14/18/5 13/27/5 

v 5.2 55 -56.5
vt 2.22441 2.16535
vn 1 -1.88153e-015 -2.02315e-017
vt 3.01181 2.16535
vt 3.01181 2.24409
vt 3.01181 2.3622
vt 2.22441 2.3622
f 20/28/6 15/29/6 18/30/6 17/31/6 19/32/6 

v 74.4 55 -76.5
vt 2.92913 3.01181
vn -8.2466e-021 1 -1.47836e-016
vt 0.0866142 0.0984252
v 4.2 55 -2.5
vt 0.165354 0.0984252
v 4.2 55 -4.5
vt 0.165354 0.177165
v 75.4 55 -4.5
vt 2.9685 0.177165
v 75.4 55 -2.5
vt 2.9685 0.0984252
v 77.4287 55 -2.5
vt 3.04837 0.0984252
v 77.4287 55 -56.5
vt 3.04837 2.22441
v 74.4 55 -56.5
vt 2.92913 2.22441
f 21/33/7 15/19/7 20/26/7 12/27/7 11/34/7 22/35/7 23/36/7 24/37/7 25/38/7 26/39/7 27/40/7 28/41/7 

vt 0.204724 2.16535
vn 0 0 1
vt 2.92913 2.16535
v 74.4 57 -76.5
vt 2.92913 2.24409
vt 0.204724 2.24409
f 15/42/8 21/43/8 29/44/8 18/45/8 

vn 1 0 -0
v 74.4 55 -81.5
vt 3.20866 2.16535
v 74.4 57 -81.5
vt 3.20866 2.24409
f 21/29/9 30/46/9 31/47/9 29/30/9 

vt 2.92913 3.20866
v 77.4287 55 -76.5
vt 3.04837 3.01181
v 77.4287 55 -81.5
vt 3.04837 3.20866
f 30/48/3 21/33/3 32/49/3 33/50/3 

vt -3.04837 2.16535
vt -2.92913 2.16535
vt -2.92913 2.24409
v 74.4 60 -76.5
vt -2.92913 2.3622
v 77.4287 60 -76.5
vt -3.04837 2.3622
f 32/51/4 21/52/4 29/53/4 34/54/4 35/55/4 

vn -1 -2.31573e-015 -2.49004e-017
v 74.4 60 -56.5
vt -3.01181 2.24409
f 21/9/10 28/14/10 36/15/10 34/16/10 29/56/10 

vn -3.50087e-031 9.39989e-017 1
vt 3.04837 2.16535
v 77.4287 60 -56.5
vt 3.04837 2.3622
vt 2.92913 2.3622
f 28/43/11 27/57/11 37/58/11 36/59/11 

vt 0.0984252 2.16535
vt 0.0984252 2.08661
vt 3.20866 2.08661
f 27/28/9 26/60/9 4/61/9 3/62/9 33/46/9 32/29/9 35/31/9 37/32/9 

vt 3.04837 2.08661
vt 2.9685 2.16535
vt 2.9685 2.08661
f 4/63/8 26/57/8 25/64/8 5/65/8 

vt 0.177165 2.16535
v 75.4 58 -4.5
vt 0.177165 2.28346
v 75.4 58 -1
vt 0.0393701 2.28346
vt 0.0393701 2.08661
f 24/66/9 38/67/9 39/68/9 6/69/9 5/61/9 25/60/9 

vt -2.9685 2.16535
vn 1.98031e-017 0 -1
vt -0.165354 2.16535
v 4.2 58 -4.5
vt -0.165354 2.28346
vt -2.9685 2.28346
f 24/70/12 23/71/12 40/72/12 38/73/12 

vt -0.177165 2.16535
vn -1 2.01945e-017 -4.17623e-016
vt -0.0393701 2.08661
v 4.2 58 -1
vt -0.0393701 2.28346
vt -0.177165 2.28346
f 23/74/13 22/13/13 8/12/13 7/75/13 41/76/13 40/77/13 

vt 0.0866142 2.08661
vn 2.81997e-015 0 1
vt 0.165354 2.08661
vt 0.165354 2.16535
vt 0.0866142 2.16535
f 1/78/14 8/79/14 22/80/14 11/81/14 

vn 9.71063e-018 0 1
vt 2.9685 2.28346
vt 0.165354 2.28346
f 7/79/15 6/65/15 39/82/15 41/83/15 

vt 0.165354 0.0393701
vt 2.9685 0.0393701
f 38/37/3 40/36/3 41/84/3 39/85/3 

vt -3.04837 2.08661
vt -0.0866142 2.08661
v 5.2 57 -81.5
f 30/52/4 33/51/4 3/86/4 2/87/4 10/22/4 16/21/4 42/25/4 31/53/4 

vn -1 0 -0
vt -3.20866 2.24409
f 16/10/16 15/9/16 18/56/16 42/88/16 

f 31/48/3 42/20/3 18/19/3 29/33/3 

vn -1.86219e-015 1 -9.39989e-017
f 35/49/17 34/33/17 36/41/17 37/40/17 

vn 3.53432e-031 9.39989e-017 1
vt 0.204724 2.3622
vt 0.0866142 2.3622
f 12/81/18 20/42/18 19/89/18 13/90/18 

