# Alias OBJ Model File
# Exported from SketchUp, (c) 2000-2012 Trimble Navigation Limited
# File units = millimeters

mtllib mask2.mtl

g Mesh1 Model

usemtl FrontColor
v 55.222 22.034 -34
vt -0.114298 -0.132694
vn -0.812732 -0.368238 0.451518
v 54.4887 24.034 -33.6889
vt -0.117612 -0.0480027
v 49.2665 24.034 -43.0889
vt -0.540966 -0.0480027
v 50.222 22.034 -43
vt -0.519637 -0.132694
f 1/1/1 2/2/1 3/3/1 4/4/1 

v 55.222 22.034 -26
vt -1.02362 0.066014
vn -0.938876 -0.344255 -2.90654e-017
v 54.4887 24.034 -25.3333
vt -0.997375 0.14988
vt -1.32633 0.14988
vt -1.33858 0.066014
f 5/5/2 6/6/2 2/7/2 1/8/2 

v 52.222 22.034 -26
vt -2.05599 0.499266
vn 2.93273e-016 0.316228 -0.948683
v 51.3554 24.034 -25.3333
vt -2.02186 0.582266
vt -2.14522 0.582266
vt -2.1741 0.499266
f 7/9/3 8/10/3 6/11/3 5/12/3 

v 52.222 22.034 -34
vt 1.33858 -0.0215138
vn 0.917556 0.397607 1.81311e-017
v 51.3554 24.034 -33.6889
vt 1.32633 0.0643013
vt 0.997375 0.0643013
vt 1.02362 -0.0215138
f 9/13/4 10/14/4 8/15/4 7/16/4 

vt 0.17752 -0.136073
vn 0.795863 0.413652 -0.442146
vt 0.171657 -0.222559
v 48.722 22.034 -40.3
vt 0.455395 -0.222559
v 47.6998 24.034 -40.2689
vt 0.473869 -0.136073
f 10/17/5 9/18/5 11/19/5 12/20/5 

v 50.222 22.034 -31
vt -1.97725 1.22047
vn 0 -1 -0
vt -1.91819 1.58661
vt -2.05599 1.33858
f 13/21/6 11/22/6 9/23/6

v 45.222 22.034 -31
vt -1.7804 1.22047
f 14/24/6 11/22/6 13/21/6

v 45.222 22.034 -34
vt -1.7804 1.33858
f 11/22/6 14/24/6 15/25/6

v 44.0443 24.034 -33.6889
vt -1.32633 -0.0645647
vn -0.861688 -0.507438 -3.22884e-016
vt -1.33858 -0.155944
vt -1.22047 -0.155944
v 44.0443 24.034 -30.5556
vt -1.20297 -0.0645647
f 16/26/7 15/27/7 14/28/7 17/29/7 

vt -2.29789 0.515782
vn -0.800354 -0.402153 -0.444641
vt -2.31851 0.429781
vt -2.03477 0.429781
vt -2.00154 0.515782
f 12/30/8 11/31/8 15/32/8 16/33/8 

vt 1.73403 1.32633
vn 0 1 -0
v 49.2665 24.034 -30.5556
vt 1.93963 1.20297
vt 1.87795 1.58539
f 16/34/9 18/35/9 12/36/9

vt 1.73403 1.20297
f 18/35/9 16/34/9 17/37/9

vt 1.73403 0.662726
vn 3.95051e-017 -0.21693 0.976187
vt 1.7804 0.582065
vt 1.97725 0.582065
vt 1.93963 0.662726
f 17/38/10 14/39/10 13/40/10 18/41/10 

vt -1.20297 0.0176045
vn -0.902304 -0.431101 4.75458e-016
vt -1.22047 -0.0696612
v 50.222 22.034 -29
vt -1.14173 -0.0696612
v 49.2665 24.034 -28.4667
vt -1.12073 0.0176045
f 18/42/11 13/43/11 19/44/11 20/45/11 

vt -1.97725 1.14173
f 13/21/6 9/23/6 19/46/6

vt -2.05599 1.02362
f 7/47/6 19/46/6 9/23/6

v 45.222 22.034 -26
vt -1.7804 1.02362
f 7/47/6 21/48/6 19/46/6

v 101.722 22.034 -0
vt -4.0048 0
f 22/49/6 21/48/6 7/47/6

v 42.222 22.034 -26
vt -1.66228 1.02362
f 22/49/6 23/50/6 21/48/6

v 26.722 22.034 -0
vt -1.05205 0
f 24/51/6 23/50/6 22/49/6

v 42.222 22.034 -34
vt -1.66228 1.33858
f 23/50/6 24/51/6 25/52/6

v 26.722 22.034 -51
vt -1.05205 2.00787
f 26/53/6 25/52/6 24/51/6

v 47.222 22.034 -43
vt -1.85914 1.69291
f 25/52/6 26/53/6 27/54/6

v 101.722 22.034 -51
vt -4.0048 2.00787
f 27/54/6 26/53/6 28/55/6

v 26.722 24.034 -51
vt -1.05205 0.94622
vn 0 0 -1
v 101.722 24.034 -51
vt -4.0048 0.94622
vt -4.0048 0.86748
vt -1.05205 0.86748
f 29/56/12 30/57/12 28/58/12 26/59/12 

vt 1.05205 2.00787
v 46.1331 24.034 -43.0889
vt 1.81627 1.69641
vt 4.0048 2.00787
f 29/60/9 31/61/9 30/62/9

v 40.9109 24.034 -33.6889
vt 1.61067 1.32633
f 31/61/9 29/60/9 32/63/9

v 40.9109 24.034 -25.3333
vt 1.61067 0.997375
f 32/63/9 29/60/9 33/64/9

v 26.722 24.034 -0
vt 1.05205 0
f 34/65/9 33/64/9 29/60/9

v 101.722 24.034 -0
vt 4.0048 0
f 33/64/9 34/65/9 35/66/9

vt 4.0048 0.94622
vn 0 0 1
vt 1.05205 0.94622
vt 1.05205 0.86748
vt 4.0048 0.86748
f 35/67/13 34/68/13 24/69/13 22/70/13 

vt -2.00787 0.94622
vn -1 0 -0
vt -2.00787 0.86748
vt 0 0.86748
vt 0 0.94622
f 29/71/14 26/72/14 24/73/14 34/74/14 

vn 1 0 -0
vt 2.00787 0.86748
vt 2.00787 0.94622
f 35/74/15 22/73/15 28/75/15 30/76/15 

v 85.222 22.034 -26
vt -3.3552 1.02362
f 22/49/6 36/77/6 28/55/6

v 82.222 22.034 -26
vt -3.23709 1.02362
f 22/49/6 37/78/6 36/77/6

v 70.722 22.034 -26
vt -2.78433 1.02362
f 22/49/6 38/79/6 37/78/6

v 60.722 22.034 -26
vt -2.39063 1.02362
f 22/49/6 39/80/6 38/79/6

vt -2.1741 1.02362
f 22/49/6 5/81/6 39/80/6

f 22/49/6 7/47/6 5/81/6

v 60.722 22.034 -27.5
vt -2.39063 1.08268
f 39/80/6 5/81/6 40/82/6

v 64.222 22.034 -43
vt -2.52843 1.69291
f 5/81/6 41/83/6 40/82/6

vt -2.1741 1.33858
f 1/84/6 41/83/6 5/81/6

vt -1.97725 1.69291
f 4/85/6 41/83/6 1/84/6

f 4/85/6 28/55/6 41/83/6

f 27/54/6 28/55/6 4/85/6

vt 1.97725 0.941791
vn -4.21135e-017 0.0444006 0.999014
vt 1.93963 1.02061
vt 1.81627 1.02061
vt 1.85914 0.941791
f 4/86/16 3/87/16 31/88/16 27/89/16 

vt 1.93963 1.69641
f 30/62/9 31/61/9 3/90/9

v 63.8887 24.034 -43.0889
vt 2.5153 1.69641
f 30/62/9 3/90/9 42/91/9

vt 2.14522 1.32633
f 42/91/9 3/90/9 2/92/9

v 60.2331 24.034 -26.9
vt 2.37138 1.05906
f 42/91/9 2/92/9 43/93/9

v 60.2331 24.034 -25.3333
vt 2.37138 0.997375
f 43/93/9 2/92/9 44/94/9

vt 2.14522 0.997375
f 6/95/9 44/94/9 2/92/9

f 6/95/9 35/66/9 44/94/9

vt 2.02186 0.997375
f 8/96/9 35/66/9 6/95/9

v 44.0443 24.034 -25.3333
vt 1.73403 0.997375
f 45/97/9 35/66/9 8/96/9

f 33/64/9 35/66/9 45/97/9

vt -1.66228 0.499266
vn 8.88706e-017 0.316228 -0.948683
vt -1.61067 0.582266
vt -1.73403 0.582266
vt -1.7804 0.499266
f 23/98/17 33/99/17 45/100/17 21/101/17 

vt 1.33858 -0.185862
vn 0.836314 0.54825 4.84754e-017
vt 1.32633 -0.0917109
vt 0.997375 -0.0917109
vt 1.02362 -0.185862
f 25/102/18 32/103/18 33/104/18 23/105/18 

vt 1.94163 0.506922
vn 0.782647 0.445432 0.434804
vt 1.97741 0.418975
vt 2.38275 0.418975
vt 2.36499 0.506922
f 32/106/19 25/107/19 27/108/19 31/109/19 

v 44.0443 24.034 -28.4667
vt -1.12073 -0.0645647
vn -0.861688 -0.507438 -2.26019e-016
v 45.222 22.034 -29
vt -1.14173 -0.155944
vt -1.02362 -0.155944
vt -0.997375 -0.0645647
f 46/110/20 47/111/20 21/112/20 45/113/20 

vt -1.93963 0.6255
vn -6.45189e-016 0.257663 -0.966235
vt -1.97725 0.544008
vt -1.7804 0.544008
vt -1.73403 0.6255
f 20/114/21 19/115/21 47/116/21 46/117/21 

vt -1.7804 1.14173
f 19/46/6 21/48/6 47/118/6

vt 1.93963 1.12073
vt 1.73403 1.12073
f 20/119/9 46/120/9 45/97/9

f 45/97/9 8/96/9 20/119/9

vt 2.02186 1.32633
f 10/121/9 20/119/9 8/96/9

f 10/121/9 18/35/9 20/119/9

f 12/36/9 18/35/9 10/121/9

v 70.6776 24.034 -25.3333
vt 2.78258 0.997375
f 44/94/9 35/66/9 48/122/9

v 70.6776 24.034 -26.9
vt 2.78258 1.05906
f 48/122/9 35/66/9 49/123/9

v 82.6887 24.034 -25.3333
vt 3.25546 0.997375
f 49/123/9 35/66/9 50/124/9

v 85.822 24.034 -25.3333
vt 3.37882 0.997375
f 50/124/9 35/66/9 51/125/9

v 85.822 24.034 -43.0889
vt 3.37882 1.69641
f 51/125/9 35/66/9 52/126/9

f 30/62/9 52/126/9 35/66/9

v 81.7463 24.034 -41.1416
vt 3.21836 1.61975
f 30/62/9 53/127/9 52/126/9

v 67.022 24.034 -43.0889
vt 2.63866 1.69641
f 30/62/9 54/128/9 53/127/9

f 30/62/9 42/91/9 54/128/9

v 67.222 22.034 -43
vt 2.64654 0.941791
vn -6.14155e-017 0.0444006 0.999014
vt 2.63866 1.02061
vt 2.5153 1.02061
vt 2.52843 0.941791
f 55/129/22 54/130/22 42/131/22 41/132/22 

vt -1.69641 0.678968
vn -0.995037 -0.0995037 4.48924e-017
vt -1.69291 0.599835
v 67.222 22.034 -32
vt -1.25984 0.599835
v 67.022 24.034 -31.6
vt -1.24409 0.678968
f 54/133/23 55/134/23 56/135/23 57/136/23 

vt -2.64654 1.69291
v 81.3197 22.034 -41.1356
vt -3.20156 1.61951
vt -2.64654 1.25984
f 55/137/6 58/138/6 56/139/6

f 55/137/6 28/55/6 58/138/6

f 41/83/6 28/55/6 55/137/6

v 85.222 22.034 -43
vt -3.3552 1.69291
f 58/138/6 28/55/6 59/140/6

f 59/140/6 28/55/6 36/77/6

vt -1.02362 1.795
vn -0.957826 0.287348 8.10338e-017
vt -0.997375 1.87721
vt -1.69641 1.87721
vt -1.69291 1.795
f 36/141/24 51/142/24 52/143/24 59/144/24 

vt -3.37882 0.582266
vn 8.88706e-018 0.316228 -0.948683
vt -3.3552 0.499266
vt -3.23709 0.499266
vt -3.25546 0.582266
f 51/145/25 36/146/25 37/147/25 50/148/25 

vt 0.997375 1.66121
vn 0.973841 -0.22723 8.64857e-017
vt 1.02362 1.58035
v 82.222 22.034 -39.1356
vt 1.54077 1.58035
v 82.6887 24.034 -39.0527
vt 1.53751 1.66121
f 50/149/26 37/150/26 60/151/26 61/152/26 

v 81.3197 22.034 -39.1356
vt -3.20156 1.54077
vt -3.23709 1.54077
f 37/78/6 62/153/6 60/154/6

f 37/78/6 38/79/6 62/153/6

f 62/153/6 38/79/6 58/138/6

v 70.722 22.034 -27.5
vt -2.78433 1.08268
f 63/155/6 58/138/6 38/79/6

v 68.3277 22.034 -31.6255
vt -2.69007 1.2451
f 64/156/6 58/138/6 63/155/6

f 56/139/6 58/138/6 64/156/6

vt 2.10007 0.485918
vn -0.31322 -0.216268 0.924728
vt 2.10248 0.405269
vt 2.14843 0.405269
v 68.1768 24.034 -31.2089
vt 2.14807 0.485918
f 57/157/27 56/158/27 64/159/27 65/160/27 

vt -2.79242 1.03604
vn -0.685263 0.0986329 -0.721586
vt -2.80803 0.956911
v 65.722 22.034 -29.151
vt -2.66655 0.956911
v 65.4554 24.034 -28.6244
vt -2.64466 1.03604
f 65/161/28 64/162/28 66/163/28 67/164/28 

vt -2.58748 1.14768
f 63/155/6 66/165/6 64/156/6

f 40/82/6 66/165/6 63/155/6

v 63.097 22.034 -31.6439
vt -2.48414 1.24582
f 66/165/6 40/82/6 68/166/6

f 40/82/6 41/83/6 68/166/6

v 64.222 22.034 -32
vt -2.52843 1.25984
f 69/167/6 68/166/6 41/83/6

v 62.7137 24.034 -31.228
vt 2.72496 0.877677
vn 0.298864 -0.139013 0.944116
vt 2.74429 0.798165
vt 2.79075 0.798165
v 63.8887 24.034 -31.6
vt 2.77348 0.877677
f 70/168/29 68/169/29 69/170/29 71/171/29 

vt -1.09259 0.20536
vn 0.662642 0.272082 -0.697766
vt -1.08592 0.123533
vt -0.9434 0.123533
vt -0.94373 0.20536
f 67/172/30 66/173/30 68/174/30 70/175/30 

vt 2.57698 1.12694
vt 2.46904 1.22945
f 43/93/9 67/176/9 70/177/9

f 67/176/9 43/93/9 49/123/9

vt 2.78433 0.51979
vn -3.17365e-016 -0.287348 0.957826
vt 2.78258 0.601998
vt 2.37138 0.601998
vt 2.39063 0.51979
f 63/178/31 49/179/31 43/180/31 40/181/31 

vt -1.05906 0.884167
vn -0.999753 -0.0222167 -5.15101e-017
vt -1.08268 0.805407
vt -1.02362 0.805407
vt -0.997375 0.884167
f 49/182/32 63/183/32 38/184/32 48/185/32 

vt -2.78258 0.582266
vn -4.11915e-017 0.316228 -0.948683
vt -2.78433 0.499266
vt -2.39063 0.499266
vt -2.37138 0.582266
f 48/186/33 38/187/33 39/188/33 44/189/33 

vt 0.997375 0.356065
vn 0.971399 0.237453 -4.36793e-016
vt 1.02362 0.275007
vt 1.08268 0.275007
vt 1.05906 0.356065
f 44/190/34 39/191/34 40/192/34 43/193/34 

vt 2.68413 1.2287
f 67/176/9 49/123/9 65/194/9

f 53/127/9 65/194/9 49/123/9

f 53/127/9 54/128/9 65/194/9

vt 2.63866 1.24409
f 65/194/9 54/128/9 57/195/9

v 81.7463 24.034 -39.0527
vt 3.21836 1.53751
f 53/127/9 49/123/9 72/196/9

f 49/123/9 50/124/9 72/196/9

vt 3.25546 1.53751
f 61/197/9 72/196/9 50/124/9

vt -3.25546 0.881762
vn 3.23334e-017 0.0413964 -0.999143
vt -3.23709 0.802954
vt -3.20156 0.802954
vt -3.21836 0.881762
f 61/198/35 60/199/35 62/200/35 72/201/35 

vt 1.53751 1.59673
vn 0.978003 -0.208591 -4.45131e-016
vt 1.54077 1.51621
vt 1.61951 1.51621
vt 1.61975 1.59673
f 72/202/36 62/203/36 58/204/36 53/205/36 

vt 3.60221 0.935893
vn 0.429395 -0.0888747 0.898733
vt 3.58696 0.85684
vt 3.75722 0.85684
vt 3.78005 0.935893
f 53/206/37 58/207/37 59/208/37 52/209/37 

f 42/91/9 43/93/9 70/177/9

vt 2.5153 1.24409
f 42/91/9 70/177/9 71/210/9

vt 1.24409 0.519833
vn 0.986394 0.164399 1.71824e-018
vt 1.25984 0.440006
vt 1.69291 0.440006
vt 1.69641 0.519833
f 71/211/38 69/212/38 41/213/38 42/214/38 

